<?xml version="1.0" encoding="utf-8"?>
<!-- Generator: Adobe Illustrator 27.5.0, SVG Export Plug-In . SVG Version: 6.00 Build 0)  -->
<svg version="1.1" id="Layer_1" xmlns="http://www.w3.org/2000/svg" xmlns:xlink="http://www.w3.org/1999/xlink" x="0px" y="0px"
	 viewBox="0 0 6000 6000" style="enable-background:new 0 0 6000 6000;" xml:space="preserve">

<polygon style="fill-rule:evenodd;clip-rule:evenodd;fill:#999999;" points="2281.256,2011.892 2449.85,2011.892 2449.85,2462.882 
	2512.803,2462.882 2512.803,2011.892 2681.397,2011.892 2681.397,2462.882 2744.35,2462.882 2744.35,2011.892 2912.944,2011.892 
	2912.944,2631.477 2281.256,2631.477 "/>
<polygon style="fill-rule:evenodd;clip-rule:evenodd;fill:#999999;" points="2287.309,2980.235 2738.299,2980.235 
	2738.299,3043.188 2287.309,3043.188 2287.309,3211.781 2738.299,3211.781 2738.299,3274.735 2287.309,3274.735 2287.309,3443.329 
	2906.893,3443.329 2906.893,2811.641 2287.309,2811.641 "/>
<polygon style="fill-rule:evenodd;clip-rule:evenodd;fill:#999999;" points="3093.108,2005.842 3093.108,2637.53 3712.692,2637.53 
	3712.692,2468.936 3261.702,2468.936 3261.702,2405.983 3712.692,2405.983 3712.692,2237.388 3261.702,2237.388 3261.702,2174.436 
	3712.692,2174.436 3712.692,2005.842 "/>
<polygon style="fill-rule:evenodd;clip-rule:evenodd;fill:#999999;" points="3087.056,3437.277 3087.056,2817.693 
	3718.744,2817.693 3718.744,3437.277 3550.15,3437.277 3550.15,2986.287 3487.197,2986.287 3487.197,3437.277 3318.603,3437.277 
	3318.603,2986.287 3255.65,2986.287 3255.65,3437.277 "/>
<g>
	<g>
		<text transform="matrix(1 0 0 1 2018.6719 3824.8867)" style="fill:#999999; font-family:'Nexa-Heavy'; font-size:265.7834px;">L</text>
	</g>
</g>
<g>
	<g>
		<text transform="matrix(1 0 0 1 2184.0088 3824.8867)" style="fill:#999999; font-family:'Nexa-Heavy'; font-size:265.7834px;">O</text>
	</g>
</g>
<g>
	<g>
		<text transform="matrix(1 0 0 1 2409.9453 3824.8867)" style="fill:#999999; font-family:'Nexa-Heavy'; font-size:265.7834px;">R</text>
	</g>
</g>
<g>
	<g>
		<text transform="matrix(1 0 0 1 2608.7686 3824.8867)" style="fill:#999999; font-family:'Nexa-Heavy'; font-size:265.7834px;">E</text>
	</g>
</g>
<g>
	<g>
		<text transform="matrix(1 0 0 1 2792.1787 3824.8867)" style="fill:#999999; font-family:'Nexa-Heavy'; font-size:265.7834px;">M </text>
	</g>
</g>
<g>
	<g>
		
			<text transform="matrix(1 0 0 1 3106.3965 3824.8867)" style="fill:#999999; font-family:'Nexa-ExtraLight'; font-size:265.7834px;">I</text>
	</g>
</g>
<g>
	<g>
		
			<text transform="matrix(1 0 0 1 3179.0781 3824.8867)" style="fill:#999999; font-family:'Nexa-ExtraLight'; font-size:265.7834px;">P</text>
	</g>
</g>
<g>
	<g>
		
			<text transform="matrix(1 0 0 1 3363.918 3824.8867)" style="fill:#999999; font-family:'Nexa-ExtraLight'; font-size:265.7834px;">S</text>
	</g>
</g>
<g>
	<g>
		
			<text transform="matrix(1 0 0 1 3545.3076 3824.8867)" style="fill:#999999; font-family:'Nexa-ExtraLight'; font-size:265.7834px;">U</text>
	</g>
</g>
<g>
	<g>
		
			<text transform="matrix(1 0 0 1 3747.1631 3824.8867)" style="fill:#999999; font-family:'Nexa-ExtraLight'; font-size:265.7834px;">M</text>
	</g>
</g>
<g>
	<g>
		<text transform="matrix(1 0 0 1 2354.4287 3992.082)" style="fill:#999999; font-family:'Nexa-Heavy'; font-size:121.9875px;">S</text>
	</g>
</g>
<g>
	<g>
		<text transform="matrix(1 0 0 1 2480.5674 3992.082)" style="fill:#999999; font-family:'Nexa-Heavy'; font-size:121.9875px;">L</text>
	</g>
</g>
<g>
	<g>
		<text transform="matrix(1 0 0 1 2599.2666 3992.082)" style="fill:#999999; font-family:'Nexa-Heavy'; font-size:121.9875px;">O</text>
	</g>
</g>
<g>
	<g>
		<text transform="matrix(1 0 0 1 2745.7822 3992.082)" style="fill:#999999; font-family:'Nexa-Heavy'; font-size:121.9875px;">G</text>
	</g>
</g>
<g>
	<g>
		<text transform="matrix(1 0 0 1 2881.9238 3992.082)" style="fill:#999999; font-family:'Nexa-Heavy'; font-size:121.9875px;">A</text>
	</g>
</g>
<g>
	<g>
		<text transform="matrix(1 0 0 1 3023.6807 3992.082)" style="fill:#999999; font-family:'Nexa-Heavy'; font-size:121.9875px;">N</text>
	</g>
</g>
<g>
	<g>
		<text transform="matrix(1 0 0 1 3164.2119 3992.082)" style="fill:#999999; font-family:'Nexa-Heavy'; font-size:121.9875px;">H</text>
	</g>
</g>
<g>
	<g>
		<text transform="matrix(1 0 0 1 3304.749 3992.082)" style="fill:#999999; font-family:'Nexa-Heavy'; font-size:121.9875px;">E</text>
	</g>
</g>
<g>
	<g>
		<text transform="matrix(1 0 0 1 3431.7432 3992.082)" style="fill:#999999; font-family:'Nexa-Heavy'; font-size:121.9875px;">R</text>
	</g>
</g>
<g>
	<g>
		<text transform="matrix(1 0 0 1 3565.8135 3992.082)" style="fill:#999999; font-family:'Nexa-Heavy'; font-size:121.9875px;">E</text>
	</g>
</g>
</svg>
